<?xml version="1.0" encoding="iso-8859-1"?>
<!-- Generator: Adobe Illustrator 21.0.2, SVG Export Plug-In . SVG Version: 6.00 Build 0)  -->
<svg xmlns="http://www.w3.org/2000/svg" xmlns:xlink="http://www.w3.org/1999/xlink" version="1.1" id="Layer_1" x="0px" y="0px" viewBox="0 0 40 40" style="enable-background:new 0 0 40 40;" xml:space="preserve">
<g>
	<path style="fill:#DFF0FE;" d="M6.429,16.5C3.193,16.5,1.5,13.57,1.5,12c0-1.268,1.852-1.5,5.5-1.5c3.715,0,7.5,1.262,7.5,2.5   C14.389,13.472,11.61,16.5,6.429,16.5z"/>
	<g>
		<path style="fill:#4788C7;" d="M7,11c3.658,0,6.712,1.207,6.981,1.905C13.527,13.673,10.872,16,6.429,16C3.521,16,2,13.396,2,12    C2,11.077,4.581,11,7,11 M7,10c-3.373,0-6,0.126-6,2s1.938,5,5.429,5C11.938,17,15,13.721,15,13C15,11.126,10.373,10,7,10L7,10z"/>
	</g>
</g>
<g>
	<path style="fill:#B6DCFE;" d="M13,8.5c-3.194,0-5.672-2.157-6.166-5.367L6.796,2.888C8.387,4.55,10.594,5.5,13,5.5h4.5v3H13z"/>
	<path style="fill:#4788C7;" d="M7.64,4.287C9.16,5.389,11.016,6,13,6h4v2h-4C10.491,8,8.463,6.551,7.64,4.287 M6,1l0.34,2.209   C6.864,6.613,9.556,9,13,9h5V5h-5C10.019,5,7.425,3.457,6,1L6,1z"/>
</g>
<g>
	<path style="fill:#DFF0FE;" d="M33.571,16.5c-5.181,0-7.96-3.028-8.074-3.532C25.5,11.762,29.285,10.5,33,10.5   c3.648,0,5.5,0.232,5.5,1.5C38.5,13.57,36.807,16.5,33.571,16.5z"/>
	<g>
		<path style="fill:#4788C7;" d="M33,11c2.419,0,5,0.077,5,1c0,1.396-1.521,4-4.429,4c-4.443,0-7.098-2.327-7.552-3.095    C26.288,12.207,29.342,11,33,11 M33,10c-3.373,0-8,1.126-8,3c0,0.721,3.063,4,8.571,4C37.063,17,39,13.874,39,12S36.373,10,33,10    L33,10z"/>
	</g>
</g>
<g>
	<path style="fill:#B6DCFE;" d="M22.5,8.5v-3H27c2.406,0,4.613-0.95,6.204-2.612l-0.038,0.245C32.672,6.343,30.194,8.5,27,8.5H22.5z   "/>
	<path style="fill:#4788C7;" d="M32.36,4.287C31.537,6.551,29.509,8,27,8h-4V6h4C28.984,6,30.84,5.389,32.36,4.287 M34,1   c-1.425,2.457-4.019,4-7,4h-5v4h5c3.444,0,6.136-2.387,6.66-5.791L34,1L34,1z"/>
</g>
<g>
	<path style="fill:#DFF0FE;" d="M20,34.5c-5.159,0-5.376-1.557-5.676-3.712c-0.133-0.956-0.284-2.039-0.896-3.047   C10.88,23.546,9.5,20.751,9.5,18c0-0.588,0.104-5.798,3.718-7.55c1.87-0.907,2.864-2.341,3.741-3.607   C17.901,5.482,18.582,4.5,20,4.5s2.099,0.982,3.041,2.342c0.877,1.266,1.871,2.701,3.741,3.607C30.396,12.202,30.5,17.412,30.5,18   c0,2.751-1.38,5.546-3.927,9.74c-0.612,1.008-0.763,2.092-0.896,3.047C25.376,32.943,25.159,34.5,20,34.5z"/>
	<g>
		<path style="fill:#4788C7;" d="M20,5c1.105,0,1.662,0.729,2.63,2.127c0.867,1.251,1.946,2.809,3.934,3.773    C29.961,12.547,30,17.778,30,18c0,2.634-1.355,5.364-3.855,9.481c-0.666,1.096-0.824,2.234-0.964,3.238    C24.896,32.765,24.724,34,20,34c-4.724,0-4.896-1.235-5.181-3.281c-0.14-1.004-0.298-2.141-0.964-3.238    C11.355,23.364,10,20.634,10,18c0-0.222,0.039-5.453,3.436-7.1c1.988-0.964,3.067-2.521,3.934-3.773C18.338,5.729,18.895,5,20,5     M20,4c-3.167,0-3.268,4.19-7,6c-3.688,1.788-4,6.869-4,8c0,2.964,1.569,5.996,4,10c1.872,3.083-0.973,7,7,7    c7.973,0,5.128-3.917,7-7c2.431-4.004,4-7.036,4-10c0-1.131-0.313-6.212-4-8C23.268,8.19,23.167,4,20,4L20,4z"/>
	</g>
</g>
<g>
	<path style="fill:#FFFFFF;" d="M20,38.5c-2.521,0-3.19-0.28-3.966-0.604c-0.172-0.072-0.347-0.145-0.543-0.217   c-0.599-0.221-1.991-0.893-1.991-2.358v-3.397c0-0.629,0.35-1.195,0.913-1.476c0.955-0.477,2.092-1.19,2.415-2.48l0.608-2.863   c0.221-0.881-0.064-2.066-1.035-2.492c-0.252-0.111-0.603-0.198-0.973-0.29c-0.321-0.08-0.686-0.17-0.867-0.255   C13.778,21.7,13.5,20.724,13.5,20v-4c0-0.972,0.691-1.815,1.644-2.005C15.169,13.989,17.613,13.5,20,13.5   c2.267,0,4.833,0.49,4.859,0.495C25.809,14.185,26.5,15.028,26.5,16v4c0,0.724-0.278,1.7-1.061,2.067   c-0.182,0.085-0.546,0.175-0.867,0.255c-0.37,0.092-0.72,0.179-0.973,0.29c-0.887,0.389-1.273,1.319-1.035,2.488l0.604,2.85   c0.327,1.307,1.464,2.021,2.419,2.498c0.563,0.281,0.913,0.847,0.913,1.476v3.397c0,1.465-1.392,2.137-1.991,2.358   c-0.196,0.073-0.372,0.146-0.543,0.217C23.19,38.22,22.521,38.5,20,38.5z"/>
	<g>
		<path style="fill:#4788C7;" d="M20,14c2.216,0,4.739,0.481,4.758,0.485C25.478,14.629,26,15.266,26,16v4    c0,0.623-0.239,1.364-0.773,1.615c-0.137,0.064-0.506,0.156-0.776,0.223c-0.391,0.097-0.761,0.189-1.053,0.317    c-1.102,0.484-1.609,1.651-1.322,3.053l0.612,2.881c0.372,1.487,1.626,2.281,2.677,2.806C25.756,31.091,26,31.485,26,31.924v3.397    c0,1.151-1.163,1.704-1.664,1.889c-0.203,0.075-0.385,0.151-0.563,0.225C23.048,37.738,22.421,38,20,38s-3.048-0.262-3.773-0.565    c-0.178-0.074-0.36-0.15-0.563-0.225C15.163,37.025,14,36.472,14,35.321v-3.397c0-0.439,0.244-0.833,0.636-1.029    c1.051-0.525,2.304-1.319,2.684-2.841l0.596-2.811c0.281-1.124-0.08-2.546-1.314-3.088c-0.292-0.128-0.662-0.22-1.053-0.317    c-0.269-0.067-0.638-0.158-0.776-0.223C14.239,21.364,14,20.623,14,20v-4c0-0.734,0.522-1.371,1.245-1.516    C15.269,14.48,17.659,14,20,14 M20,13c-2.469,0-4.954,0.504-4.954,0.504C13.856,13.742,13,14.787,13,16v4    c0,1.013,0.432,2.09,1.349,2.52c0.437,0.205,1.409,0.356,1.851,0.55c0.695,0.305,0.93,1.194,0.746,1.93l-0.604,2.846    c-0.263,1.05-1.185,1.67-2.153,2.154l0,0C13.46,30.364,13,31.109,13,31.924v3.397c0,1.374,1.028,2.352,2.318,2.827    C16.434,38.56,16.844,39,20,39s3.566-0.44,4.682-0.852C25.972,37.672,27,36.695,27,35.321v-3.397c0-0.815-0.46-1.559-1.189-1.923    l0,0c-0.968-0.484-1.891-1.104-2.153-2.154L23.054,25c-0.179-0.875,0.051-1.625,0.746-1.93c0.442-0.194,1.414-0.345,1.851-0.55    C26.568,22.09,27,21.013,27,20v-4c0-1.213-0.856-2.258-2.046-2.496C24.954,13.504,22.344,13,20,13L20,13z"/>
	</g>
</g>
<g>
	<g>
		<path style="fill:#98CCFD;" d="M25,35c-1.625,0-2.94,1.294-2.991,2.907c0.873-0.103,1.301-0.278,1.764-0.472    c0.178-0.074,0.36-0.15,0.563-0.225c0.5-0.184,1.664-0.738,1.664-1.889v-0.139C25.688,35.068,25.353,35,25,35z"/>
	</g>
</g>
<g>
	<g>
		<path style="fill:#98CCFD;" d="M15,35c-0.353,0-0.688,0.068-1,0.182v0.139c0,1.151,1.163,1.704,1.664,1.889    c0.203,0.075,0.385,0.151,0.563,0.225c0.463,0.193,0.891,0.369,1.764,0.472C17.94,36.294,16.625,35,15,35z"/>
	</g>
</g>
</svg>
